HIERARCHY
ROOT Hips
{
 OFFSET 0.000000 0.000000 0.000000
 CHANNELS 6 Xposition Yposition Zposition Yrotation Xrotation Zrotation
 JOINT Chest
 {
  OFFSET 0.000000 9.585900 0.002600
  CHANNELS 3 Yrotation Xrotation Zrotation
  JOINT Chest2
  {
   OFFSET 0.000000 9.601200 -0.005300
   CHANNELS 3 Yrotation Xrotation Zrotation
   JOINT Chest3
   {
    OFFSET 0.000000 9.561800 0.000000
    CHANNELS 3 Yrotation Xrotation Zrotation
    JOINT Chest4
    {
     OFFSET 0.000000 9.552100 0.000000
     CHANNELS 3 Yrotation Xrotation Zrotation
     JOINT Neck
     {
      OFFSET 0.000000 14.453000 0.000000
      CHANNELS 3 Yrotation Xrotation Zrotation
      JOINT Head
      {
       OFFSET 0.000000 8.936500 -0.011300
       CHANNELS 3 Yrotation Xrotation Zrotation
       End Site
       {
        OFFSET 0.000000 17.073600 -0.006000
       }
      }
     }
     JOINT RightCollar
     {
      OFFSET -2.921100 9.558500 0.000000
      CHANNELS 3 Yrotation Xrotation Zrotation
      JOINT RightShoulder
      {
       OFFSET -13.519700 0.000000 0.000000
       CHANNELS 3 Yrotation Xrotation Zrotation
       JOINT RightElbow
       {
        OFFSET 0.000000 -29.696600 0.000000
        CHANNELS 3 Yrotation Xrotation Zrotation
        JOINT RightWrist
        {
         OFFSET 0.000000 -24.004700 0.000000
         CHANNELS 3 Yrotation Xrotation Zrotation
         End Site
         {
          OFFSET 0.000000 -17.728500 0.000000
         }
        }
       }
      }
     }
     JOINT LeftCollar
     {
      OFFSET 2.921100 9.558500 0.000000
      CHANNELS 3 Yrotation Xrotation Zrotation
      JOINT LeftShoulder
      {
       OFFSET 13.519700 0.000000 0.000000
       CHANNELS 3 Yrotation Xrotation Zrotation
       JOINT LeftElbow
       {
        OFFSET 0.000000 -29.696600 0.000000
        CHANNELS 3 Yrotation Xrotation Zrotation
        JOINT LeftWrist
        {
         OFFSET 0.000000 -24.004700 0.000000
         CHANNELS 3 Yrotation Xrotation Zrotation
         End Site
         {
          OFFSET 0.000000 -17.728500 0.000000
         }
        }
       }
      }
     }
    }
   }
  }
 }
 JOINT RightHip
 {
  OFFSET -7.771700 -0.012900 -0.001300
  CHANNELS 3 Yrotation Xrotation Zrotation
  JOINT RightKnee
  {
   OFFSET 0.000000 -40.869800 0.001200
   CHANNELS 3 Yrotation Xrotation Zrotation
   JOINT RightAnkle
   {
    OFFSET 0.000000 -39.717900 0.002100
    CHANNELS 3 Yrotation Xrotation Zrotation
    JOINT RightToe
    {
     OFFSET 0.000000 -4.965400 11.033500
     CHANNELS 3 Yrotation Xrotation Zrotation
     End Site
     {
      OFFSET 0.000000 -1.423100 5.872300
     }
    }
   }
  }
 }
 JOINT LeftHip
 {
  OFFSET 7.771700 -0.012900 -0.001300
  CHANNELS 3 Yrotation Xrotation Zrotation
  JOINT LeftKnee
  {
   OFFSET 0.000000 -40.869800 0.001200
   CHANNELS 3 Yrotation Xrotation Zrotation
   JOINT LeftAnkle
   {
    OFFSET 0.000000 -39.717900 0.002100
    CHANNELS 3 Yrotation Xrotation Zrotation
    JOINT LeftToe
    {
     OFFSET 0.000000 -4.965400 11.033500
     CHANNELS 3 Yrotation Xrotation Zrotation
     End Site
     {
      OFFSET 0.000000 -1.423100 5.872300
     }
    }
   }
  }
 }
}
MOTION
Frames: 8
Frame Time: 0.008333
-67.689446 63.249312 12.408632 163.964905 -52.373852 -2.503767 6.977189 26.239128 4.632001 1.098802 4.569912 0.392247 1.741750 7.220958 0.646272 5.617648 21.416239 2.674008 2.916414 15.897547 0.073265 5.387768 -6.229159 -0.912380 7.135154 5.452456 5.797679 2.409199 -13.768678 -15.821874 -105.530792 -62.436901 141.951945 18.712421 1.308738 0.528798 -10.655930 3.107782 -0.586489 -0.128080 -11.082359 16.586663 -171.400576 -84.026122 145.627750 5.498126 -2.895489 -1.050304 -4.654126 -7.987438 10.279642 -26.664181 74.096471 -24.730149 0.926063 -12.970830 -2.197781 -0.444167 0.734572 -0.191359 -1.922214 -14.457140 1.032711 13.857619 62.232926 7.162946 -2.619334 -6.147442 1.301662 -0.263626 -0.746966 -0.098347
-67.693736 63.248444 12.408097 163.973755 -52.362997 -2.493208 6.974113 26.236259 4.626524 1.096462 4.571338 0.392813 1.741991 7.221123 0.646743 5.611730 21.411701 2.667453 2.956124 15.896093 0.075657 5.448941 -6.238965 -0.930625 7.156259 5.445771 5.806187 2.392662 -13.794295 -15.873995 -105.754090 -62.349284 142.106165 18.701358 1.221954 0.581324 -10.660575 3.093373 -0.590928 -0.020277 -11.071601 16.584770 -172.243029 -83.880051 146.581024 5.476701 -3.127939 -1.153086 -4.658667 -7.999574 10.265127 -26.683606 74.093996 -24.761465 0.931033 -12.976565 -2.187326 -0.450497 0.740939 -0.193721 -1.910046 -14.464573 1.025834 13.875481 62.223857 7.159943 -2.633077 -6.139004 1.324644 -0.274296 -0.745819 -0.103872
-67.697920 63.248047 12.407497 163.972738 -52.356075 -2.478409 6.985300 26.245815 4.639277 1.083962 4.559661 0.376802 1.742108 7.221350 0.647102 5.618395 21.415477 2.674878 2.965282 15.889861 0.069074 5.534440 -6.243606 -0.953413 7.172432 5.437488 5.806326 2.352569 -13.855699 -15.969703 -105.897672 -62.177051 142.181910 18.717754 1.142092 0.678728 -10.671777 3.081327 -0.597966 0.102862 -11.073065 16.572703 -172.953699 -83.702256 147.420325 5.432141 -3.367961 -1.273493 -4.657384 -8.009188 10.257809 -26.685377 74.095049 -24.785374 0.937671 -12.980064 -2.167189 -0.469175 0.744956 -0.200159 -1.892443 -14.468844 1.017002 13.875138 62.218242 7.154934 -2.647888 -6.132044 1.334984 -0.274767 -0.745565 -0.106655
-67.701873 63.246992 12.407819 163.978257 -52.343662 -2.474917 6.987975 26.241699 4.644898 1.078680 4.555631 0.371133 1.742144 7.221760 0.647566 5.640894 21.426336 2.700012 2.956151 15.877151 0.050135 5.565420 -6.246300 -0.962661 7.259819 5.451727 5.835409 2.241167 -13.907930 -16.031092 -106.216826 -61.995634 142.411953 18.763087 1.091753 0.845573 -10.686042 3.067818 -0.604146 0.227248 -11.082351 16.544523 -173.559615 -83.490273 148.182779 5.361075 -3.603928 -1.413072 -4.660367 -8.024116 10.256551 -26.704170 74.095264 -24.810486 0.920669 -12.984303 -2.175888 -0.454216 0.747526 -0.185601 -1.881968 -14.478940 1.013561 13.875180 62.212981 7.150671 -2.657996 -6.129173 1.347314 -0.276582 -0.740987 -0.112426
-67.706121 63.247286 12.407250 163.984085 -52.341237 -2.471739 6.989248 26.245739 4.648243 1.080069 4.558446 0.375035 1.747538 7.224418 0.654875 5.630409 21.419521 2.696995 2.990391 15.879482 0.045893 5.572762 -6.251462 -0.970943 7.328615 5.481108 5.864900 2.116060 -13.984939 -16.097289 -106.491900 -61.733763 142.630635 18.824479 1.060980 1.090531 -10.677145 3.080942 -0.592307 0.368395 -11.101970 16.500346 -174.109877 -83.241399 148.911640 5.265210 -3.835289 -1.562765 -4.664693 -8.027615 10.254811 -26.732836 74.093096 -24.852951 0.917938 -12.986443 -2.167934 -0.449006 0.746363 -0.187953 -1.877705 -14.478851 1.009254 13.879962 62.207476 7.146700 -2.659058 -6.119788 1.354555 -0.282175 -0.742789 -0.114511
-67.711400 63.247178 12.407019 163.998231 -52.335226 -2.472773 6.978114 26.243065 4.640345 1.097403 4.568189 0.402943 1.729477 7.215689 0.631209 5.630071 21.417975 2.704399 3.029503 15.879894 0.041539 5.635303 -6.251968 -0.988930 7.383405 5.518226 5.885618 1.969553 -14.073315 -16.141319 -106.768688 -61.420864 142.876071 18.876040 1.035689 1.412594 -10.619990 3.137657 -0.531038 0.505931 -11.159751 16.407470 -174.685085 -82.949406 149.671473 5.156916 -4.061326 -1.692077 -4.670719 -8.033593 10.251526 -26.726763 74.090268 -24.870524 0.925351 -12.989667 -2.143589 -0.467652 0.751787 -0.194100 -1.878274 -14.483104 1.000909 13.875152 62.201790 7.138475 -2.663650 -6.109281 1.354483 -0.276982 -0.744945 -0.110657
-67.716935 63.247604 12.406730 164.000468 -52.332676 -2.465405 6.983658 26.248199 4.653701 1.094793 4.566137 0.403192 1.727090 7.214237 0.631307 5.616414 21.416669 2.689999 3.108491 15.876591 0.059948 5.746607 -6.255446 -1.032531 7.441487 5.563830 5.910870 1.802012 -14.172671 -16.166866 -107.045515 -61.063832 143.137215 18.894833 1.005066 1.793235 -10.566633 3.195756 -0.473810 0.680848 -11.212570 16.327825 -175.369229 -82.603898 150.547337 5.040770 -4.283808 -1.782648 -4.669942 -8.037659 10.242384 -26.718767 74.090220 -24.871105 0.921307 -12.989798 -2.139585 -0.469456 0.752513 -0.193442 -1.854283 -14.481161 0.997574 13.831440 62.193846 7.099652 -2.668279 -6.093454 1.351328 -0.273090 -0.753021 -0.094544
-67.722907 63.247350 12.407337 164.012311 -52.324108 -2.466873 6.981940 26.246025 4.665236 1.093382 4.564630 0.405567 1.724983 7.214331 0.632964 5.611105 21.416027 2.696551 3.103600 15.875604 0.039485 5.873804 -6.267485 -1.060145 7.484977 5.611717 5.916717 1.603284 -14.285506 -16.185293 -107.233803 -60.646264 143.356456 18.867263 0.960220 2.201075 -10.532065 3.248958 -0.449264 0.888234 -11.253126 16.270054 -176.169186 -82.187038 151.557698 4.907802 -4.507645 -1.824884 -4.676293 -8.048842 10.236847 -26.723501 74.090613 -24.880974 0.903826 -12.987272 -2.142448 -0.457101 0.748436 -0.191155 -1.852791 -14.487605 0.996536 13.819573 62.186653 7.079409 -2.680226 -6.077255 1.354655 -0.261094 -0.755023 -0.090320
